<svg version="1.1" viewBox="0.0 0.0 48.0 48.0" fill="none" stroke="none" stroke-linecap="square" stroke-miterlimit="10" xmlns:xlink="http://www.w3.org/1999/xlink" xmlns="http://www.w3.org/2000/svg"><clipPath id="p.0"><path d="m0 0l48.0 0l0 48.0l-48.0 0l0 -48.0z" clip-rule="nonzero"/></clipPath><g clip-path="url(#p.0)"><path fill="#000000" fill-opacity="0.0" d="m0 0l48.0 0l0 48.0l-48.0 0z" fill-rule="evenodd"/><path fill="#ffe599" d="m0.6456693 24.0c0 -12.898241 10.45609 -23.35433 23.35433 -23.35433c12.898239 0 23.354332 10.45609 23.354332 23.35433c0 12.898239 -10.456093 23.354332 -23.354332 23.354332c-12.898241 0 -23.35433 -10.456093 -23.35433 -23.354332z" fill-rule="evenodd"/><path fill="#cbb77a" d="m14.085221 17.015326c0 -1.3435669 1.0891762 -2.432743 2.432744 -2.432743c1.343565 0 2.4327412 1.0891762 2.4327412 2.432743c0 1.3435669 -1.0891762 2.432743 -2.4327412 2.432743c-1.3435678 0 -2.432744 -1.0891762 -2.432744 -2.432743m14.964072 0c0 -1.3435669 1.0891762 -2.432743 2.4327412 -2.432743c1.3435688 0 2.432745 1.0891762 2.432745 2.432743c0 1.3435669 -1.0891762 2.432743 -2.432745 2.432743c-1.343565 0 -2.4327412 -1.0891762 -2.4327412 -2.432743" fill-rule="evenodd"/><path fill="#000000" fill-opacity="0.0" d="m11.3418 34.18498q12.6582 8.693417 25.286839 0" fill-rule="evenodd"/><path fill="#000000" fill-opacity="0.0" d="m0.6456693 24.0c0 -12.898241 10.45609 -23.35433 23.35433 -23.35433c12.898239 0 23.354332 10.45609 23.354332 23.35433c0 12.898239 -10.456093 23.354332 -23.354332 23.354332c-12.898241 0 -23.35433 -10.456093 -23.35433 -23.354332z" fill-rule="evenodd"/><path stroke="#000000" stroke-width="1.0" stroke-linejoin="round" stroke-linecap="butt" d="m14.085221 17.015326c0 -1.3435669 1.0891762 -2.432743 2.432744 -2.432743c1.343565 0 2.4327412 1.0891762 2.4327412 2.432743c0 1.3435669 -1.0891762 2.432743 -2.4327412 2.432743c-1.3435678 0 -2.432744 -1.0891762 -2.432744 -2.432743m14.964072 0c0 -1.3435669 1.0891762 -2.432743 2.4327412 -2.432743c1.3435688 0 2.432745 1.0891762 2.432745 2.432743c0 1.3435669 -1.0891762 2.432743 -2.432745 2.432743c-1.343565 0 -2.4327412 -1.0891762 -2.4327412 -2.432743" fill-rule="evenodd"/><path stroke="#000000" stroke-width="1.0" stroke-linejoin="round" stroke-linecap="butt" d="m11.3418 34.18498q12.6582 8.693417 25.286839 0" fill-rule="evenodd"/><path stroke="#000000" stroke-width="1.0" stroke-linejoin="round" stroke-linecap="butt" d="m0.6456693 24.0c0 -12.898241 10.45609 -23.35433 23.35433 -23.35433c12.898239 0 23.354332 10.45609 23.354332 23.35433c0 12.898239 -10.456093 23.354332 -23.354332 23.354332c-12.898241 0 -23.35433 -10.456093 -23.35433 -23.354332z" fill-rule="evenodd"/></g></svg>